<svg width="42" height="42" viewBox="0 0 42 42" fill="none" xmlns="http://www.w3.org/2000/svg">
<path fill-rule="evenodd" clip-rule="evenodd" d="M21.0879 41.6391H21.0793C17.5793 41.6379 14.1403 40.764 11.0859 39.1059L0 42L2.96676 31.2154C1.13672 28.0591 0.173759 24.4788 0.175329 20.8108C0.179916 9.3358 9.56112 0 21.0877 0C26.682 0.00240287 31.9326 2.1698 35.8808 6.10372C39.829 10.0374 42.0022 15.2663 42 20.8272C41.9954 32.2996 32.6179 41.6344 21.0879 41.6391ZM11.5995 35.3382L12.2342 35.7131C14.9029 37.2891 17.9619 38.123 21.0809 38.1242H21.0879C30.668 38.1242 38.4653 30.3642 38.4691 20.826C38.4709 16.2038 36.6647 11.8578 33.3831 8.58811C30.1014 5.31838 25.7373 3.51682 21.0948 3.51522C11.5073 3.51522 3.70993 11.2745 3.70613 20.812C3.70478 24.0805 4.62371 27.2637 6.36362 30.0178L6.77689 30.6723L5.02099 37.0556L11.5995 35.3382ZM30.9077 25.308C31.2722 25.4833 31.5182 25.6017 31.6233 25.7762C31.7539 25.9931 31.7539 27.0342 31.3187 28.2492C30.8831 29.4638 28.7956 30.5725 27.7916 30.7217C26.8914 30.8557 25.7522 30.9116 24.5005 30.5157C23.7416 30.276 22.7684 29.9561 21.5217 29.4202C16.6231 27.3152 13.3127 22.5901 12.6871 21.6971C12.6432 21.6346 12.6126 21.5908 12.5955 21.5681L12.5913 21.5625C12.3147 21.1953 10.4619 18.735 10.4619 16.1886C10.4619 13.7933 11.6442 12.5377 12.1884 11.9598C12.2257 11.9202 12.26 11.8838 12.2907 11.8504C12.7696 11.3298 13.3357 11.1996 13.6841 11.1996C14.0324 11.1996 14.3811 11.2028 14.6855 11.2181C14.7231 11.2199 14.7622 11.2197 14.8026 11.2195C15.1071 11.2177 15.4867 11.2155 15.8612 12.1107C16.0053 12.4553 16.2161 12.9661 16.4384 13.5048C16.8881 14.5942 17.3848 15.7978 17.4722 15.972C17.6029 16.2323 17.6899 16.5358 17.5158 16.8831C17.4896 16.9351 17.4654 16.9843 17.4423 17.0312C17.3115 17.297 17.2153 17.4925 16.9933 17.7505C16.906 17.852 16.8157 17.9613 16.7255 18.0707C16.5457 18.2886 16.366 18.5064 16.2095 18.6616C15.9479 18.9209 15.6756 19.2022 15.9804 19.7229C16.2852 20.2435 17.3339 21.9463 18.8872 23.3253C20.557 24.8076 22.0083 25.434 22.7439 25.7516C22.8876 25.8136 23.0039 25.8638 23.0893 25.9064C23.6116 26.1668 23.9164 26.1232 24.2213 25.7762C24.5261 25.4292 25.5275 24.2577 25.8758 23.7372C26.224 23.2168 26.5725 23.3034 27.0514 23.4769C27.5305 23.6506 30.0994 24.9085 30.6219 25.1688C30.7239 25.2196 30.8193 25.2655 30.9077 25.308Z" fill="#FDFDFD"/>
</svg>
