<svg xmlns="http://www.w3.org/2000/svg" xmlns:xlink="http://www.w3.org/1999/xlink" width="302" zoomAndPan="magnify" viewBox="0 0 226.5 84.749997" height="113" preserveAspectRatio="xMidYMid meet" version="1.0"><defs><g/><clipPath id="e8a46f7eb8"><path d="M 167.941406 15 L 222.648438 15 L 222.648438 69.710938 L 167.941406 69.710938 Z M 167.941406 15 " clip-rule="nonzero"/></clipPath></defs><g fill="#000000" fill-opacity="1"><g transform="translate(15.184661, 74.606102)"><g><path d="M 14.25 0 L 1.1875 0 L 1.1875 -2.34375 L 6.15625 -7.34375 C 7.625 -8.84375 8.597656 -9.90625 9.078125 -10.53125 C 9.554688 -11.15625 9.90625 -11.742188 10.125 -12.296875 C 10.34375 -12.859375 10.453125 -13.453125 10.453125 -14.078125 C 10.453125 -14.953125 10.1875 -15.640625 9.65625 -16.140625 C 9.132812 -16.640625 8.414062 -16.890625 7.5 -16.890625 C 6.757812 -16.890625 6.046875 -16.753906 5.359375 -16.484375 C 4.671875 -16.210938 3.875 -15.71875 2.96875 -15 L 1.296875 -17.046875 C 2.367188 -17.953125 3.40625 -18.59375 4.40625 -18.96875 C 5.414062 -19.351562 6.492188 -19.546875 7.640625 -19.546875 C 9.429688 -19.546875 10.867188 -19.078125 11.953125 -18.140625 C 13.035156 -17.203125 13.578125 -15.941406 13.578125 -14.359375 C 13.578125 -13.492188 13.421875 -12.671875 13.109375 -11.890625 C 12.796875 -11.109375 12.316406 -10.300781 11.671875 -9.46875 C 11.023438 -8.632812 9.953125 -7.507812 8.453125 -6.09375 L 5.09375 -2.859375 L 5.09375 -2.734375 L 14.25 -2.734375 Z M 14.25 0 "/></g></g><g transform="translate(30.584873, 74.606102)"><g><path d="M 14.25 0 L 1.1875 0 L 1.1875 -2.34375 L 6.15625 -7.34375 C 7.625 -8.84375 8.597656 -9.90625 9.078125 -10.53125 C 9.554688 -11.15625 9.90625 -11.742188 10.125 -12.296875 C 10.34375 -12.859375 10.453125 -13.453125 10.453125 -14.078125 C 10.453125 -14.953125 10.1875 -15.640625 9.65625 -16.140625 C 9.132812 -16.640625 8.414062 -16.890625 7.5 -16.890625 C 6.757812 -16.890625 6.046875 -16.753906 5.359375 -16.484375 C 4.671875 -16.210938 3.875 -15.71875 2.96875 -15 L 1.296875 -17.046875 C 2.367188 -17.953125 3.40625 -18.59375 4.40625 -18.96875 C 5.414062 -19.351562 6.492188 -19.546875 7.640625 -19.546875 C 9.429688 -19.546875 10.867188 -19.078125 11.953125 -18.140625 C 13.035156 -17.203125 13.578125 -15.941406 13.578125 -14.359375 C 13.578125 -13.492188 13.421875 -12.671875 13.109375 -11.890625 C 12.796875 -11.109375 12.316406 -10.300781 11.671875 -9.46875 C 11.023438 -8.632812 9.953125 -7.507812 8.453125 -6.09375 L 5.09375 -2.859375 L 5.09375 -2.734375 L 14.25 -2.734375 Z M 14.25 0 "/></g></g><g transform="translate(45.985086, 74.606102)"><g><path d="M 13.515625 -14.84375 C 13.515625 -13.613281 13.160156 -12.59375 12.453125 -11.78125 C 11.742188 -10.96875 10.742188 -10.421875 9.453125 -10.140625 L 9.453125 -10.046875 C 10.992188 -9.847656 12.148438 -9.363281 12.921875 -8.59375 C 13.691406 -7.820312 14.078125 -6.800781 14.078125 -5.53125 C 14.078125 -3.675781 13.421875 -2.242188 12.109375 -1.234375 C 10.804688 -0.234375 8.945312 0.265625 6.53125 0.265625 C 4.394531 0.265625 2.597656 -0.0820312 1.140625 -0.78125 L 1.140625 -3.53125 C 1.953125 -3.125 2.8125 -2.8125 3.71875 -2.59375 C 4.632812 -2.375 5.515625 -2.265625 6.359375 -2.265625 C 7.859375 -2.265625 8.972656 -2.539062 9.703125 -3.09375 C 10.441406 -3.644531 10.8125 -4.503906 10.8125 -5.671875 C 10.8125 -6.691406 10.398438 -7.441406 9.578125 -7.921875 C 8.765625 -8.410156 7.488281 -8.65625 5.75 -8.65625 L 4.078125 -8.65625 L 4.078125 -11.171875 L 5.765625 -11.171875 C 8.835938 -11.171875 10.375 -12.234375 10.375 -14.359375 C 10.375 -15.179688 10.109375 -15.816406 9.578125 -16.265625 C 9.046875 -16.710938 8.253906 -16.9375 7.203125 -16.9375 C 6.472656 -16.9375 5.769531 -16.832031 5.09375 -16.625 C 4.414062 -16.425781 3.617188 -16.023438 2.703125 -15.421875 L 1.1875 -17.59375 C 2.945312 -18.894531 5 -19.546875 7.34375 -19.546875 C 9.28125 -19.546875 10.789062 -19.125 11.875 -18.28125 C 12.96875 -17.445312 13.515625 -16.300781 13.515625 -14.84375 Z M 13.515625 -14.84375 "/></g></g><g transform="translate(61.385298, 74.606102)"><g><path d="M 7.71875 -12.03125 C 9.664062 -12.03125 11.203125 -11.515625 12.328125 -10.484375 C 13.460938 -9.460938 14.03125 -8.0625 14.03125 -6.28125 C 14.03125 -4.226562 13.382812 -2.625 12.09375 -1.46875 C 10.8125 -0.3125 8.984375 0.265625 6.609375 0.265625 C 4.460938 0.265625 2.773438 -0.0820312 1.546875 -0.78125 L 1.546875 -3.578125 C 2.253906 -3.179688 3.066406 -2.867188 3.984375 -2.640625 C 4.910156 -2.421875 5.769531 -2.3125 6.5625 -2.3125 C 7.957031 -2.3125 9.019531 -2.625 9.75 -3.25 C 10.476562 -3.875 10.84375 -4.789062 10.84375 -6 C 10.84375 -8.300781 9.375 -9.453125 6.4375 -9.453125 C 6.03125 -9.453125 5.519531 -9.410156 4.90625 -9.328125 C 4.300781 -9.242188 3.773438 -9.144531 3.328125 -9.03125 L 1.9375 -9.859375 L 2.671875 -19.265625 L 12.6875 -19.265625 L 12.6875 -16.515625 L 5.40625 -16.515625 L 4.96875 -11.734375 C 5.269531 -11.785156 5.644531 -11.847656 6.09375 -11.921875 C 6.539062 -11.992188 7.082031 -12.03125 7.71875 -12.03125 Z M 7.71875 -12.03125 "/></g></g><g transform="translate(76.785511, 74.606102)"><g><path d="M 14.21875 -11.046875 C 14.21875 -7.242188 13.453125 -4.40625 11.921875 -2.53125 C 10.390625 -0.664062 8.085938 0.265625 5.015625 0.265625 C 3.847656 0.265625 3.007812 0.191406 2.5 0.046875 L 2.5 -2.546875 C 3.28125 -2.328125 4.066406 -2.21875 4.859375 -2.21875 C 6.953125 -2.21875 8.507812 -2.78125 9.53125 -3.90625 C 10.5625 -5.03125 11.125 -6.796875 11.21875 -9.203125 L 11.0625 -9.203125 C 10.550781 -8.410156 9.925781 -7.835938 9.1875 -7.484375 C 8.457031 -7.128906 7.597656 -6.953125 6.609375 -6.953125 C 4.910156 -6.953125 3.570312 -7.484375 2.59375 -8.546875 C 1.625 -9.609375 1.140625 -11.066406 1.140625 -12.921875 C 1.140625 -14.929688 1.703125 -16.53125 2.828125 -17.71875 C 3.953125 -18.914062 5.488281 -19.515625 7.4375 -19.515625 C 8.8125 -19.515625 10.007812 -19.179688 11.03125 -18.515625 C 12.050781 -17.847656 12.835938 -16.878906 13.390625 -15.609375 C 13.941406 -14.335938 14.21875 -12.816406 14.21875 -11.046875 Z M 7.5 -16.9375 C 6.425781 -16.9375 5.601562 -16.585938 5.03125 -15.890625 C 4.457031 -15.191406 4.171875 -14.210938 4.171875 -12.953125 C 4.171875 -11.859375 4.4375 -10.992188 4.96875 -10.359375 C 5.5 -9.734375 6.304688 -9.421875 7.390625 -9.421875 C 8.429688 -9.421875 9.304688 -9.734375 10.015625 -10.359375 C 10.734375 -10.984375 11.09375 -11.710938 11.09375 -12.546875 C 11.09375 -13.328125 10.941406 -14.054688 10.640625 -14.734375 C 10.335938 -15.421875 9.910156 -15.957031 9.359375 -16.34375 C 8.816406 -16.738281 8.195312 -16.9375 7.5 -16.9375 Z M 7.5 -16.9375 "/></g></g><g transform="translate(92.185723, 74.606102)"><g><path d="M 3.375 0 L 10.984375 -16.515625 L 0.96875 -16.515625 L 0.96875 -19.234375 L 14.296875 -19.234375 L 14.296875 -17.078125 L 6.71875 0 Z M 3.375 0 "/></g></g><g transform="translate(107.585936, 74.606102)"><g><path d="M 14.25 0 L 1.1875 0 L 1.1875 -2.34375 L 6.15625 -7.34375 C 7.625 -8.84375 8.597656 -9.90625 9.078125 -10.53125 C 9.554688 -11.15625 9.90625 -11.742188 10.125 -12.296875 C 10.34375 -12.859375 10.453125 -13.453125 10.453125 -14.078125 C 10.453125 -14.953125 10.1875 -15.640625 9.65625 -16.140625 C 9.132812 -16.640625 8.414062 -16.890625 7.5 -16.890625 C 6.757812 -16.890625 6.046875 -16.753906 5.359375 -16.484375 C 4.671875 -16.210938 3.875 -15.71875 2.96875 -15 L 1.296875 -17.046875 C 2.367188 -17.953125 3.40625 -18.59375 4.40625 -18.96875 C 5.414062 -19.351562 6.492188 -19.546875 7.640625 -19.546875 C 9.429688 -19.546875 10.867188 -19.078125 11.953125 -18.140625 C 13.035156 -17.203125 13.578125 -15.941406 13.578125 -14.359375 C 13.578125 -13.492188 13.421875 -12.671875 13.109375 -11.890625 C 12.796875 -11.109375 12.316406 -10.300781 11.671875 -9.46875 C 11.023438 -8.632812 9.953125 -7.507812 8.453125 -6.09375 L 5.09375 -2.859375 L 5.09375 -2.734375 L 14.25 -2.734375 Z M 14.25 0 "/></g></g><g transform="translate(122.986148, 74.606102)"><g><path d="M 13.515625 -14.84375 C 13.515625 -13.613281 13.160156 -12.59375 12.453125 -11.78125 C 11.742188 -10.96875 10.742188 -10.421875 9.453125 -10.140625 L 9.453125 -10.046875 C 10.992188 -9.847656 12.148438 -9.363281 12.921875 -8.59375 C 13.691406 -7.820312 14.078125 -6.800781 14.078125 -5.53125 C 14.078125 -3.675781 13.421875 -2.242188 12.109375 -1.234375 C 10.804688 -0.234375 8.945312 0.265625 6.53125 0.265625 C 4.394531 0.265625 2.597656 -0.0820312 1.140625 -0.78125 L 1.140625 -3.53125 C 1.953125 -3.125 2.8125 -2.8125 3.71875 -2.59375 C 4.632812 -2.375 5.515625 -2.265625 6.359375 -2.265625 C 7.859375 -2.265625 8.972656 -2.539062 9.703125 -3.09375 C 10.441406 -3.644531 10.8125 -4.503906 10.8125 -5.671875 C 10.8125 -6.691406 10.398438 -7.441406 9.578125 -7.921875 C 8.765625 -8.410156 7.488281 -8.65625 5.75 -8.65625 L 4.078125 -8.65625 L 4.078125 -11.171875 L 5.765625 -11.171875 C 8.835938 -11.171875 10.375 -12.234375 10.375 -14.359375 C 10.375 -15.179688 10.109375 -15.816406 9.578125 -16.265625 C 9.046875 -16.710938 8.253906 -16.9375 7.203125 -16.9375 C 6.472656 -16.9375 5.769531 -16.832031 5.09375 -16.625 C 4.414062 -16.425781 3.617188 -16.023438 2.703125 -15.421875 L 1.1875 -17.59375 C 2.945312 -18.894531 5 -19.546875 7.34375 -19.546875 C 9.28125 -19.546875 10.789062 -19.125 11.875 -18.28125 C 12.96875 -17.445312 13.515625 -16.300781 13.515625 -14.84375 Z M 13.515625 -14.84375 "/></g></g><g transform="translate(138.386361, 74.606102)"><g><path d="M 7.71875 -12.03125 C 9.664062 -12.03125 11.203125 -11.515625 12.328125 -10.484375 C 13.460938 -9.460938 14.03125 -8.0625 14.03125 -6.28125 C 14.03125 -4.226562 13.382812 -2.625 12.09375 -1.46875 C 10.8125 -0.3125 8.984375 0.265625 6.609375 0.265625 C 4.460938 0.265625 2.773438 -0.0820312 1.546875 -0.78125 L 1.546875 -3.578125 C 2.253906 -3.179688 3.066406 -2.867188 3.984375 -2.640625 C 4.910156 -2.421875 5.769531 -2.3125 6.5625 -2.3125 C 7.957031 -2.3125 9.019531 -2.625 9.75 -3.25 C 10.476562 -3.875 10.84375 -4.789062 10.84375 -6 C 10.84375 -8.300781 9.375 -9.453125 6.4375 -9.453125 C 6.03125 -9.453125 5.519531 -9.410156 4.90625 -9.328125 C 4.300781 -9.242188 3.773438 -9.144531 3.328125 -9.03125 L 1.9375 -9.859375 L 2.671875 -19.265625 L 12.6875 -19.265625 L 12.6875 -16.515625 L 5.40625 -16.515625 L 4.96875 -11.734375 C 5.269531 -11.785156 5.644531 -11.847656 6.09375 -11.921875 C 6.539062 -11.992188 7.082031 -12.03125 7.71875 -12.03125 Z M 7.71875 -12.03125 "/></g></g><g transform="translate(153.786573, 74.606102)"><g><path d="M 3.375 0 L 10.984375 -16.515625 L 0.96875 -16.515625 L 0.96875 -19.234375 L 14.296875 -19.234375 L 14.296875 -17.078125 L 6.71875 0 Z M 3.375 0 "/></g></g></g><g fill="#000000" fill-opacity="1"><g transform="translate(13.856788, 15.902679)"><g><path d="M 7.808594 -8.347656 C 7.5625 -8.347656 7.367188 -8.164062 7.328125 -7.941406 L 6.214844 -1.457031 L 3.039062 -8.152344 C 2.992188 -8.25 2.890625 -8.347656 2.707031 -8.347656 C 2.464844 -8.347656 2.292969 -8.164062 2.253906 -7.941406 L 0.90625 -0.304688 C 0.871094 -0.0859375 1.003906 0.0976562 1.238281 0.0976562 C 1.496094 0.0976562 1.679688 -0.0859375 1.714844 -0.304688 L 2.867188 -6.789062 L 5.992188 -0.0742188 C 6.054688 0.0351562 6.152344 0.0976562 6.300781 0.0976562 C 6.53125 0.0976562 6.753906 -0.0859375 6.789062 -0.320312 L 8.136719 -7.941406 C 8.175781 -8.164062 8.027344 -8.347656 7.808594 -8.347656 Z M 7.808594 -8.347656 "/></g></g></g><g fill="#000000" fill-opacity="1"><g transform="translate(24.520601, 15.902679)"><g><path d="M 5.464844 0 C 5.699219 0 5.917969 -0.195312 5.917969 -0.429688 C 5.917969 -0.613281 5.785156 -0.761719 5.601562 -0.761719 L 1.949219 -0.761719 L 2.488281 -3.773438 L 5.183594 -3.773438 C 5.40625 -3.773438 5.636719 -3.972656 5.636719 -4.203125 C 5.636719 -4.386719 5.503906 -4.535156 5.320312 -4.535156 L 2.621094 -4.535156 L 3.136719 -7.488281 L 6.65625 -7.488281 C 6.886719 -7.488281 7.109375 -7.683594 7.109375 -7.917969 C 7.109375 -8.101562 6.972656 -8.25 6.789062 -8.25 L 2.855469 -8.25 C 2.621094 -8.25 2.402344 -8.066406 2.367188 -7.832031 L 1.054688 -0.417969 C 1.015625 -0.183594 1.164062 0 1.398438 0 Z M 5.464844 0 "/></g></g></g><g fill="#000000" fill-opacity="1"><g transform="translate(33.934262, 15.902679)"><g><path d="M 4.328125 0.171875 C 5.453125 0.171875 6.65625 -0.28125 7.328125 -1.066406 C 7.425781 -1.175781 7.453125 -1.25 7.453125 -1.359375 C 7.453125 -1.582031 7.28125 -1.753906 7.058594 -1.753906 C 6.949219 -1.753906 6.851562 -1.714844 6.742188 -1.59375 C 6.128906 -0.917969 5.269531 -0.589844 4.460938 -0.589844 C 2.890625 -0.589844 2.011719 -1.261719 2.011719 -3.089844 C 2.011719 -5.980469 3.394531 -7.660156 5.6875 -7.660156 C 6.605469 -7.660156 7.253906 -7.339844 7.710938 -6.628906 C 7.796875 -6.496094 7.917969 -6.472656 8.027344 -6.472656 C 8.25 -6.472656 8.421875 -6.644531 8.421875 -6.863281 C 8.421875 -6.925781 8.40625 -7 8.371094 -7.058594 C 7.929688 -7.855469 7.011719 -8.421875 5.796875 -8.421875 C 2.929688 -8.421875 1.140625 -6.445312 1.140625 -2.976562 C 1.140625 -0.796875 2.328125 0.171875 4.328125 0.171875 Z M 4.328125 0.171875 "/></g></g></g><g fill="#000000" fill-opacity="1"><g transform="translate(44.732901, 15.902679)"><g><path d="M 5.464844 0 C 5.699219 0 5.917969 -0.195312 5.917969 -0.429688 C 5.917969 -0.613281 5.785156 -0.761719 5.601562 -0.761719 L 1.949219 -0.761719 L 2.488281 -3.773438 L 5.183594 -3.773438 C 5.40625 -3.773438 5.636719 -3.972656 5.636719 -4.203125 C 5.636719 -4.386719 5.503906 -4.535156 5.320312 -4.535156 L 2.621094 -4.535156 L 3.136719 -7.488281 L 6.65625 -7.488281 C 6.886719 -7.488281 7.109375 -7.683594 7.109375 -7.917969 C 7.109375 -8.101562 6.972656 -8.25 6.789062 -8.25 L 2.855469 -8.25 C 2.621094 -8.25 2.402344 -8.066406 2.367188 -7.832031 L 1.054688 -0.417969 C 1.015625 -0.183594 1.164062 0 1.398438 0 Z M 5.464844 0 "/></g></g></g><g fill="#000000" fill-opacity="1"><g transform="translate(54.146563, 15.902679)"><g><path d="M 6.65625 -6.714844 C 6.742188 -6.582031 6.863281 -6.53125 6.972656 -6.53125 C 7.195312 -6.53125 7.367188 -6.703125 7.367188 -6.925781 C 7.367188 -6.984375 7.355469 -7.035156 7.328125 -7.097656 C 7.011719 -7.894531 6.066406 -8.421875 4.925781 -8.421875 C 2.917969 -8.421875 1.910156 -7.328125 1.910156 -6.066406 C 1.910156 -3.675781 5.882812 -4.328125 5.882812 -2.414062 C 5.882812 -1.3125 5 -0.589844 3.46875 -0.589844 C 2.390625 -0.589844 1.742188 -1.089844 1.457031 -1.726562 C 1.410156 -1.851562 1.261719 -1.949219 1.101562 -1.949219 C 0.882812 -1.949219 0.710938 -1.777344 0.710938 -1.554688 C 0.710938 -1.519531 0.710938 -1.484375 0.734375 -1.410156 C 1.003906 -0.613281 1.886719 0.171875 3.332031 0.171875 C 5.578125 0.171875 6.730469 -0.871094 6.730469 -2.5625 C 6.730469 -4.976562 2.769531 -4.4375 2.769531 -6.152344 C 2.769531 -6.886719 3.347656 -7.660156 4.792969 -7.660156 C 5.820312 -7.660156 6.347656 -7.207031 6.65625 -6.714844 Z M 6.65625 -6.714844 "/></g></g></g><g fill="#000000" fill-opacity="1"><g transform="translate(64.050478, 15.902679)"><g><path d="M 3.210938 -7.929688 C 3.246094 -8.152344 3.113281 -8.347656 2.867188 -8.347656 C 2.621094 -8.347656 2.414062 -8.152344 2.378906 -7.929688 L 1.03125 -0.320312 C 0.992188 -0.0976562 1.128906 0.0976562 1.371094 0.0976562 C 1.617188 0.0976562 1.828125 -0.0976562 1.863281 -0.320312 Z M 3.210938 -7.929688 "/></g></g></g><g fill="#000000" fill-opacity="1"><g transform="translate(69.909786, 15.902679)"><g><path d="M 4.203125 -7.464844 L 2.941406 -0.320312 C 2.90625 -0.0859375 3.050781 0.0976562 3.285156 0.0976562 C 3.515625 0.0976562 3.738281 -0.0859375 3.773438 -0.320312 L 5.039062 -7.464844 L 7.21875 -7.464844 C 7.464844 -7.464844 7.683594 -7.671875 7.683594 -7.917969 C 7.683594 -8.101562 7.550781 -8.25 7.355469 -8.25 L 2.144531 -8.25 C 1.898438 -8.25 1.679688 -8.039062 1.679688 -7.796875 C 1.679688 -7.609375 1.8125 -7.464844 2.011719 -7.464844 Z M 4.203125 -7.464844 "/></g></g></g><g fill="#000000" fill-opacity="1"><g transform="translate(79.568576, 15.902679)"><g><path d="M 5.773438 -3.199219 L 2.867188 -3.199219 L 4.976562 -6.949219 Z M 5.894531 -2.4375 L 6.410156 -0.183594 C 6.445312 -0.0234375 6.59375 0.0976562 6.800781 0.0976562 C 7.085938 0.0976562 7.242188 -0.0859375 7.242188 -0.332031 C 7.242188 -0.367188 7.230469 -0.441406 7.21875 -0.503906 L 5.578125 -8.066406 C 5.539062 -8.210938 5.417969 -8.347656 5.207031 -8.347656 C 4.988281 -8.347656 4.867188 -8.210938 4.78125 -8.066406 L 0.417969 -0.5625 C 0.378906 -0.503906 0.34375 -0.417969 0.34375 -0.320312 C 0.34375 -0.0859375 0.527344 0.0976562 0.761719 0.0976562 C 0.96875 0.0976562 1.089844 -0.0351562 1.175781 -0.195312 L 2.476562 -2.4375 Z M 5.894531 -2.4375 "/></g></g></g><g fill="#000000" fill-opacity="1"><g transform="translate(90.146601, 15.902679)"><g><path d="M 6.65625 -6.714844 C 6.742188 -6.582031 6.863281 -6.53125 6.972656 -6.53125 C 7.195312 -6.53125 7.367188 -6.703125 7.367188 -6.925781 C 7.367188 -6.984375 7.355469 -7.035156 7.328125 -7.097656 C 7.011719 -7.894531 6.066406 -8.421875 4.925781 -8.421875 C 2.917969 -8.421875 1.910156 -7.328125 1.910156 -6.066406 C 1.910156 -3.675781 5.882812 -4.328125 5.882812 -2.414062 C 5.882812 -1.3125 5 -0.589844 3.46875 -0.589844 C 2.390625 -0.589844 1.742188 -1.089844 1.457031 -1.726562 C 1.410156 -1.851562 1.261719 -1.949219 1.101562 -1.949219 C 0.882812 -1.949219 0.710938 -1.777344 0.710938 -1.554688 C 0.710938 -1.519531 0.710938 -1.484375 0.734375 -1.410156 C 1.003906 -0.613281 1.886719 0.171875 3.332031 0.171875 C 5.578125 0.171875 6.730469 -0.871094 6.730469 -2.5625 C 6.730469 -4.976562 2.769531 -4.4375 2.769531 -6.152344 C 2.769531 -6.886719 3.347656 -7.660156 4.792969 -7.660156 C 5.820312 -7.660156 6.347656 -7.207031 6.65625 -6.714844 Z M 6.65625 -6.714844 "/></g></g></g><g fill="#000000" fill-opacity="1"><g transform="translate(100.050518, 15.902679)"><g/></g></g><g fill="#000000" fill-opacity="1"><g transform="translate(106.032385, 15.902679)"><g><path d="M 5.773438 -3.199219 L 2.867188 -3.199219 L 4.976562 -6.949219 Z M 5.894531 -2.4375 L 6.410156 -0.183594 C 6.445312 -0.0234375 6.59375 0.0976562 6.800781 0.0976562 C 7.085938 0.0976562 7.242188 -0.0859375 7.242188 -0.332031 C 7.242188 -0.367188 7.230469 -0.441406 7.21875 -0.503906 L 5.578125 -8.066406 C 5.539062 -8.210938 5.417969 -8.347656 5.207031 -8.347656 C 4.988281 -8.347656 4.867188 -8.210938 4.78125 -8.066406 L 0.417969 -0.5625 C 0.378906 -0.503906 0.34375 -0.417969 0.34375 -0.320312 C 0.34375 -0.0859375 0.527344 0.0976562 0.761719 0.0976562 C 0.96875 0.0976562 1.089844 -0.0351562 1.175781 -0.195312 L 2.476562 -2.4375 Z M 5.894531 -2.4375 "/></g></g></g><g fill="#000000" fill-opacity="1"><g transform="translate(116.610405, 15.902679)"><g><path d="M 3.164062 0.0976562 C 3.40625 0.0976562 3.617188 -0.0859375 3.652344 -0.320312 L 4.277344 -3.835938 L 7.425781 -7.660156 C 7.488281 -7.734375 7.527344 -7.820312 7.527344 -7.929688 C 7.527344 -8.164062 7.339844 -8.347656 7.109375 -8.347656 C 6.984375 -8.347656 6.863281 -8.296875 6.765625 -8.175781 L 3.996094 -4.667969 L 2.414062 -8.113281 C 2.351562 -8.25 2.230469 -8.347656 2.046875 -8.347656 C 1.8125 -8.347656 1.628906 -8.164062 1.628906 -7.929688 C 1.628906 -7.867188 1.640625 -7.808594 1.667969 -7.757812 L 3.445312 -3.835938 L 2.820312 -0.320312 C 2.78125 -0.0859375 2.917969 0.0976562 3.164062 0.0976562 Z M 3.164062 0.0976562 "/></g></g></g><g fill="#000000" fill-opacity="1"><g transform="translate(126.024061, 15.902679)"><g><path d="M 3.835938 0.171875 C 6.261719 0.171875 6.9375 -1.164062 7.171875 -2.511719 L 8.125 -7.929688 C 8.164062 -8.164062 8.027344 -8.347656 7.78125 -8.347656 C 7.539062 -8.347656 7.328125 -8.164062 7.292969 -7.929688 L 6.335938 -2.511719 C 6.164062 -1.542969 5.648438 -0.613281 3.972656 -0.613281 C 2.585938 -0.613281 2.207031 -1.238281 2.207031 -1.996094 C 2.207031 -2.132812 2.21875 -2.304688 2.253906 -2.511719 L 3.210938 -7.929688 C 3.246094 -8.164062 3.113281 -8.347656 2.867188 -8.347656 C 2.621094 -8.347656 2.414062 -8.164062 2.378906 -7.929688 L 1.421875 -2.511719 C 1.386719 -2.28125 1.359375 -2.046875 1.359375 -1.828125 C 1.359375 -0.746094 2.046875 0.171875 3.835938 0.171875 Z M 3.835938 0.171875 "/></g></g></g><g fill="#000000" fill-opacity="1"><g transform="translate(136.736895, 15.902679)"><g><path d="M 3.136719 -7.488281 L 4.449219 -7.488281 C 5.980469 -7.488281 6.898438 -6.839844 6.898438 -5.023438 C 6.898438 -2.167969 5.515625 -0.761719 3.261719 -0.761719 L 1.949219 -0.761719 Z M 2.855469 -8.25 C 2.621094 -8.25 2.402344 -8.066406 2.367188 -7.832031 L 1.054688 -0.417969 C 1.015625 -0.183594 1.164062 0 1.398438 0 L 3.125 0 C 6.019531 0 7.769531 -1.800781 7.769531 -5.160156 C 7.769531 -7.378906 6.570312 -8.25 4.582031 -8.25 Z M 2.855469 -8.25 "/></g></g></g><g fill="#000000" fill-opacity="1"><g transform="translate(147.253627, 15.902679)"><g><path d="M 5.773438 -3.199219 L 2.867188 -3.199219 L 4.976562 -6.949219 Z M 5.894531 -2.4375 L 6.410156 -0.183594 C 6.445312 -0.0234375 6.59375 0.0976562 6.800781 0.0976562 C 7.085938 0.0976562 7.242188 -0.0859375 7.242188 -0.332031 C 7.242188 -0.367188 7.230469 -0.441406 7.21875 -0.503906 L 5.578125 -8.066406 C 5.539062 -8.210938 5.417969 -8.347656 5.207031 -8.347656 C 4.988281 -8.347656 4.867188 -8.210938 4.78125 -8.066406 L 0.417969 -0.5625 C 0.378906 -0.503906 0.34375 -0.417969 0.34375 -0.320312 C 0.34375 -0.0859375 0.527344 0.0976562 0.761719 0.0976562 C 0.96875 0.0976562 1.089844 -0.0351562 1.175781 -0.195312 L 2.476562 -2.4375 Z M 5.894531 -2.4375 "/></g></g></g><g fill="#000000" fill-opacity="1"><g transform="translate(157.831646, 15.902679)"><g><path d="M 0.96875 0.0976562 C 1.398438 0.0976562 1.667969 -0.183594 1.667969 -0.648438 C 1.667969 -0.929688 1.484375 -1.066406 1.175781 -1.066406 C 0.746094 -1.066406 0.476562 -0.785156 0.476562 -0.320312 C 0.476562 -0.0351562 0.660156 0.0976562 0.96875 0.0976562 Z M 0.96875 0.0976562 "/></g></g></g><g fill="#000000" fill-opacity="1"><g transform="translate(162.857515, 15.902679)"><g><path d="M 0.96875 0.0976562 C 1.398438 0.0976562 1.667969 -0.183594 1.667969 -0.648438 C 1.667969 -0.929688 1.484375 -1.066406 1.175781 -1.066406 C 0.746094 -1.066406 0.476562 -0.785156 0.476562 -0.320312 C 0.476562 -0.0351562 0.660156 0.0976562 0.96875 0.0976562 Z M 0.96875 0.0976562 "/></g></g></g><g fill="#000000" fill-opacity="1"><g transform="translate(167.883383, 15.902679)"><g><path d="M 0.96875 0.0976562 C 1.398438 0.0976562 1.667969 -0.183594 1.667969 -0.648438 C 1.667969 -0.929688 1.484375 -1.066406 1.175781 -1.066406 C 0.746094 -1.066406 0.476562 -0.785156 0.476562 -0.320312 C 0.476562 -0.0351562 0.660156 0.0976562 0.96875 0.0976562 Z M 0.96875 0.0976562 "/></g></g></g><g fill="#000000" fill-opacity="1"><g transform="translate(172.909252, 15.902679)"><g><path d="M 0.96875 0.0976562 C 1.398438 0.0976562 1.667969 -0.183594 1.667969 -0.648438 C 1.667969 -0.929688 1.484375 -1.066406 1.175781 -1.066406 C 0.746094 -1.066406 0.476562 -0.785156 0.476562 -0.320312 C 0.476562 -0.0351562 0.660156 0.0976562 0.96875 0.0976562 Z M 0.96875 0.0976562 "/></g></g></g><g fill="#000000" fill-opacity="1"><g transform="translate(22.19383, 46.351862)"><g><path d="M 7.574219 0.296875 C 9.53125 0.296875 11.445312 -0.59375 12.378906 -1.957031 C 12.464844 -2.085938 12.507812 -2.191406 12.507812 -2.359375 C 12.507812 -2.746094 12.210938 -3.042969 11.828125 -3.042969 C 11.65625 -3.042969 11.421875 -2.976562 11.273438 -2.765625 C 10.445312 -1.574219 8.976562 -1.019531 7.574219 -1.019531 C 4.296875 -1.019531 2.425781 -2.722656 2.425781 -7.148438 C 2.425781 -11.316406 4.296875 -13.296875 7.574219 -13.296875 C 9.167969 -13.296875 10.550781 -12.507812 11.273438 -11.507812 C 11.445312 -11.296875 11.636719 -11.230469 11.828125 -11.230469 C 12.210938 -11.230469 12.507812 -11.53125 12.507812 -11.914062 C 12.507812 -12.0625 12.464844 -12.210938 12.359375 -12.359375 C 11.359375 -13.742188 9.59375 -14.613281 7.574219 -14.613281 C 3.445312 -14.613281 0.9375 -12.1875 0.9375 -7.148438 C 0.9375 -1.914062 3.445312 0.296875 7.574219 0.296875 Z M 7.574219 0.296875 "/></g></g></g><g fill="#000000" fill-opacity="1"><g transform="translate(35.61582, 46.351862)"><g><path d="M 7.574219 0.296875 C 11.699219 0.296875 14.210938 -2.148438 14.210938 -7.148438 C 14.210938 -12.1875 11.699219 -14.613281 7.574219 -14.613281 C 3.445312 -14.613281 0.9375 -12.1875 0.9375 -7.148438 C 0.9375 -2.148438 3.445312 0.296875 7.574219 0.296875 Z M 7.574219 -13.296875 C 10.828125 -13.296875 12.722656 -11.316406 12.722656 -7.148438 C 12.722656 -3 10.828125 -1.019531 7.574219 -1.019531 C 4.320312 -1.019531 2.425781 -3 2.425781 -7.148438 C 2.425781 -11.316406 4.320312 -13.296875 7.574219 -13.296875 Z M 7.574219 -13.296875 "/></g></g></g><g fill="#000000" fill-opacity="1"><g transform="translate(50.760762, 46.351862)"><g><path d="M 10.996094 -14.488281 C 10.613281 -14.488281 10.296875 -14.167969 10.296875 -13.785156 L 10.296875 -2.871094 L 2.765625 -14.1875 C 2.660156 -14.335938 2.445312 -14.488281 2.191406 -14.488281 C 1.808594 -14.488281 1.488281 -14.167969 1.488281 -13.785156 L 1.488281 -0.53125 C 1.488281 -0.148438 1.808594 0.171875 2.191406 0.171875 C 2.574219 0.171875 2.894531 -0.148438 2.894531 -0.53125 L 2.894531 -11.421875 L 10.382812 -0.128906 C 10.53125 0.0625 10.722656 0.171875 10.976562 0.171875 C 11.382812 0.171875 11.699219 -0.148438 11.699219 -0.554688 L 11.699219 -13.785156 C 11.699219 -14.167969 11.382812 -14.488281 10.996094 -14.488281 Z M 10.996094 -14.488281 "/></g></g></g><g fill="#000000" fill-opacity="1"><g transform="translate(63.94877, 46.351862)"><g><path d="M 5 -12.957031 L 5 -0.554688 C 5 -0.148438 5.316406 0.171875 5.722656 0.171875 C 6.125 0.171875 6.445312 -0.148438 6.445312 -0.554688 L 6.445312 -12.957031 L 10.230469 -12.957031 C 10.613281 -12.957031 10.914062 -13.253906 10.914062 -13.636719 C 10.914062 -14.019531 10.613281 -14.316406 10.230469 -14.316406 L 1.191406 -14.316406 C 0.808594 -14.316406 0.511719 -14.019531 0.511719 -13.636719 C 0.511719 -13.253906 0.808594 -12.957031 1.191406 -12.957031 Z M 5 -12.957031 "/></g></g></g><g fill="#000000" fill-opacity="1"><g transform="translate(75.392564, 46.351862)"><g><path d="M 9.039062 -5.550781 L 4 -5.550781 L 6.507812 -12.0625 Z M 9.488281 -4.234375 L 11.019531 -0.320312 C 11.125 -0.0429688 11.359375 0.171875 11.722656 0.171875 C 12.167969 0.171875 12.464844 -0.171875 12.464844 -0.554688 C 12.464844 -0.617188 12.445312 -0.765625 12.402344 -0.871094 L 7.210938 -13.996094 C 7.105469 -14.253906 6.871094 -14.488281 6.507812 -14.488281 C 6.125 -14.488281 5.933594 -14.253906 5.828125 -13.996094 L 0.636719 -0.871094 C 0.59375 -0.785156 0.574219 -0.636719 0.574219 -0.554688 C 0.574219 -0.171875 0.894531 0.171875 1.296875 0.171875 C 1.660156 0.171875 1.894531 -0.0625 2 -0.339844 L 3.550781 -4.234375 Z M 9.488281 -4.234375 "/></g></g></g><g fill="#000000" fill-opacity="1"><g transform="translate(88.431673, 46.351862)"><g><path d="M 7.574219 0.296875 C 9.53125 0.296875 11.445312 -0.59375 12.378906 -1.957031 C 12.464844 -2.085938 12.507812 -2.191406 12.507812 -2.359375 C 12.507812 -2.746094 12.210938 -3.042969 11.828125 -3.042969 C 11.65625 -3.042969 11.421875 -2.976562 11.273438 -2.765625 C 10.445312 -1.574219 8.976562 -1.019531 7.574219 -1.019531 C 4.296875 -1.019531 2.425781 -2.722656 2.425781 -7.148438 C 2.425781 -11.316406 4.296875 -13.296875 7.574219 -13.296875 C 9.167969 -13.296875 10.550781 -12.507812 11.273438 -11.507812 C 11.445312 -11.296875 11.636719 -11.230469 11.828125 -11.230469 C 12.210938 -11.230469 12.507812 -11.53125 12.507812 -11.914062 C 12.507812 -12.0625 12.464844 -12.210938 12.359375 -12.359375 C 11.359375 -13.742188 9.59375 -14.613281 7.574219 -14.613281 C 3.445312 -14.613281 0.9375 -12.1875 0.9375 -7.148438 C 0.9375 -1.914062 3.445312 0.296875 7.574219 0.296875 Z M 7.574219 0.296875 "/></g></g></g><g fill="#000000" fill-opacity="1"><g transform="translate(101.853663, 46.351862)"><g><path d="M 5 -12.957031 L 5 -0.554688 C 5 -0.148438 5.316406 0.171875 5.722656 0.171875 C 6.125 0.171875 6.445312 -0.148438 6.445312 -0.554688 L 6.445312 -12.957031 L 10.230469 -12.957031 C 10.613281 -12.957031 10.914062 -13.253906 10.914062 -13.636719 C 10.914062 -14.019531 10.613281 -14.316406 10.230469 -14.316406 L 1.191406 -14.316406 C 0.808594 -14.316406 0.511719 -14.019531 0.511719 -13.636719 C 0.511719 -13.253906 0.808594 -12.957031 1.191406 -12.957031 Z M 5 -12.957031 "/></g></g></g><g fill="#000000" fill-opacity="1"><g transform="translate(113.297457, 46.351862)"><g><path d="M 9.039062 -5.550781 L 4 -5.550781 L 6.507812 -12.0625 Z M 9.488281 -4.234375 L 11.019531 -0.320312 C 11.125 -0.0429688 11.359375 0.171875 11.722656 0.171875 C 12.167969 0.171875 12.464844 -0.171875 12.464844 -0.554688 C 12.464844 -0.617188 12.445312 -0.765625 12.402344 -0.871094 L 7.210938 -13.996094 C 7.105469 -14.253906 6.871094 -14.488281 6.507812 -14.488281 C 6.125 -14.488281 5.933594 -14.253906 5.828125 -13.996094 L 0.636719 -0.871094 C 0.59375 -0.785156 0.574219 -0.636719 0.574219 -0.554688 C 0.574219 -0.171875 0.894531 0.171875 1.296875 0.171875 C 1.660156 0.171875 1.894531 -0.0625 2 -0.339844 L 3.550781 -4.234375 Z M 9.488281 -4.234375 "/></g></g></g><g fill="#000000" fill-opacity="1"><g transform="translate(126.336567, 46.351862)"><g><path d="M 10.996094 -14.488281 C 10.613281 -14.488281 10.296875 -14.167969 10.296875 -13.785156 L 10.296875 -2.871094 L 2.765625 -14.1875 C 2.660156 -14.335938 2.445312 -14.488281 2.191406 -14.488281 C 1.808594 -14.488281 1.488281 -14.167969 1.488281 -13.785156 L 1.488281 -0.53125 C 1.488281 -0.148438 1.808594 0.171875 2.191406 0.171875 C 2.574219 0.171875 2.894531 -0.148438 2.894531 -0.53125 L 2.894531 -11.421875 L 10.382812 -0.128906 C 10.53125 0.0625 10.722656 0.171875 10.976562 0.171875 C 11.382812 0.171875 11.699219 -0.148438 11.699219 -0.554688 L 11.699219 -13.785156 C 11.699219 -14.167969 11.382812 -14.488281 10.996094 -14.488281 Z M 10.996094 -14.488281 "/></g></g></g><g fill="#000000" fill-opacity="1"><g transform="translate(139.524574, 46.351862)"><g><path d="M 7.574219 0.296875 C 11.699219 0.296875 14.210938 -2.148438 14.210938 -7.148438 C 14.210938 -12.1875 11.699219 -14.613281 7.574219 -14.613281 C 3.445312 -14.613281 0.9375 -12.1875 0.9375 -7.148438 C 0.9375 -2.148438 3.445312 0.296875 7.574219 0.296875 Z M 7.574219 -13.296875 C 10.828125 -13.296875 12.722656 -11.316406 12.722656 -7.148438 C 12.722656 -3 10.828125 -1.019531 7.574219 -1.019531 C 4.320312 -1.019531 2.425781 -3 2.425781 -7.148438 C 2.425781 -11.316406 4.320312 -13.296875 7.574219 -13.296875 Z M 7.574219 -13.296875 "/></g></g></g><g fill="#000000" fill-opacity="1"><g transform="translate(154.669517, 46.351862)"><g><path d="M 9.425781 -11.613281 C 9.59375 -11.402344 9.785156 -11.339844 9.976562 -11.339844 C 10.359375 -11.339844 10.65625 -11.636719 10.65625 -12.019531 C 10.65625 -12.167969 10.613281 -12.296875 10.53125 -12.421875 C 9.636719 -13.761719 8 -14.613281 5.976562 -14.613281 C 2.871094 -14.613281 1.445312 -12.933594 1.445312 -10.976562 C 1.445312 -5.933594 9.488281 -7.808594 9.488281 -3.828125 C 9.488281 -1.957031 8.167969 -1.019531 5.828125 -1.019531 C 3.957031 -1.019531 2.722656 -1.9375 2.042969 -3.042969 C 1.914062 -3.253906 1.703125 -3.382812 1.445312 -3.382812 C 1.0625 -3.382812 0.765625 -3.085938 0.765625 -2.703125 C 0.765625 -2.574219 0.785156 -2.488281 0.871094 -2.320312 C 1.59375 -0.9375 3.402344 0.296875 5.828125 0.296875 C 9.105469 0.296875 10.933594 -1.171875 10.933594 -3.828125 C 10.933594 -8.957031 2.894531 -7.445312 2.894531 -10.976562 C 2.894531 -12.1875 3.742188 -13.296875 5.976562 -13.296875 C 7.765625 -13.296875 8.785156 -12.402344 9.425781 -11.613281 Z M 9.425781 -11.613281 "/></g></g></g><g clip-path="url(#e8a46f7eb8)"><path fill="#20ab4b" d="M 222.652344 42.355469 C 222.652344 43.25 222.609375 44.144531 222.519531 45.035156 C 222.433594 45.929688 222.300781 46.8125 222.125 47.691406 C 221.953125 48.570312 221.734375 49.4375 221.472656 50.296875 C 221.214844 51.152344 220.914062 51.996094 220.570312 52.824219 C 220.226562 53.652344 219.84375 54.460938 219.421875 55.25 C 219 56.042969 218.539062 56.808594 218.042969 57.554688 C 217.542969 58.300781 217.011719 59.019531 216.441406 59.710938 C 215.875 60.402344 215.273438 61.066406 214.640625 61.699219 C 214.003906 62.332031 213.34375 62.933594 212.648438 63.503906 C 211.957031 64.070312 211.238281 64.605469 210.492188 65.101562 C 209.75 65.601562 208.980469 66.058594 208.191406 66.480469 C 207.398438 66.90625 206.589844 67.289062 205.761719 67.628906 C 204.9375 67.972656 204.09375 68.273438 203.234375 68.535156 C 202.378906 68.792969 201.511719 69.011719 200.632812 69.1875 C 199.753906 69.363281 198.867188 69.492188 197.976562 69.582031 C 197.085938 69.667969 196.191406 69.710938 195.292969 69.710938 C 194.398438 69.710938 193.503906 69.667969 192.613281 69.582031 C 191.722656 69.492188 190.835938 69.363281 189.957031 69.1875 C 189.078125 69.011719 188.210938 68.792969 187.351562 68.535156 C 186.496094 68.273438 185.652344 67.972656 184.824219 67.628906 C 183.996094 67.289062 183.1875 66.90625 182.398438 66.480469 C 181.609375 66.058594 180.839844 65.601562 180.09375 65.101562 C 179.351562 64.605469 178.632812 64.070312 177.9375 63.503906 C 177.246094 62.933594 176.582031 62.332031 175.949219 61.699219 C 175.316406 61.066406 174.714844 60.402344 174.148438 59.710938 C 173.578125 59.019531 173.046875 58.300781 172.546875 57.554688 C 172.050781 56.808594 171.589844 56.042969 171.167969 55.25 C 170.746094 54.460938 170.363281 53.652344 170.019531 52.824219 C 169.675781 51.996094 169.375 51.152344 169.113281 50.296875 C 168.855469 49.4375 168.636719 48.570312 168.460938 47.691406 C 168.289062 46.8125 168.15625 45.929688 168.070312 45.035156 C 167.980469 44.144531 167.9375 43.25 167.9375 42.355469 C 167.9375 41.460938 167.980469 40.566406 168.070312 39.671875 C 168.15625 38.78125 168.289062 37.898438 168.460938 37.019531 C 168.636719 36.140625 168.855469 35.269531 169.113281 34.414062 C 169.375 33.554688 169.675781 32.714844 170.019531 31.886719 C 170.363281 31.058594 170.746094 30.25 171.167969 29.460938 C 171.589844 28.667969 172.050781 27.902344 172.546875 27.15625 C 173.046875 26.410156 173.578125 25.691406 174.148438 25 C 174.714844 24.308594 175.316406 23.644531 175.949219 23.011719 C 176.582031 22.378906 177.246094 21.777344 177.9375 21.207031 C 178.632812 20.640625 179.351562 20.105469 180.09375 19.609375 C 180.839844 19.109375 181.609375 18.652344 182.398438 18.226562 C 183.1875 17.804688 183.996094 17.421875 184.824219 17.082031 C 185.652344 16.738281 186.496094 16.4375 187.351562 16.175781 C 188.210938 15.914062 189.078125 15.699219 189.957031 15.523438 C 190.835938 15.347656 191.722656 15.21875 192.613281 15.128906 C 193.503906 15.042969 194.398438 14.996094 195.292969 14.996094 C 196.191406 14.996094 197.085938 15.042969 197.976562 15.128906 C 198.867188 15.21875 199.753906 15.347656 200.632812 15.523438 C 201.511719 15.699219 202.378906 15.914062 203.234375 16.175781 C 204.09375 16.4375 204.9375 16.738281 205.761719 17.082031 C 206.589844 17.421875 207.398438 17.804688 208.191406 18.226562 C 208.980469 18.652344 209.75 19.109375 210.492188 19.609375 C 211.238281 20.105469 211.957031 20.640625 212.648438 21.207031 C 213.34375 21.777344 214.003906 22.378906 214.640625 23.011719 C 215.273438 23.644531 215.875 24.308594 216.441406 25 C 217.011719 25.691406 217.542969 26.410156 218.042969 27.15625 C 218.539062 27.902344 219 28.667969 219.421875 29.460938 C 219.84375 30.25 220.226562 31.058594 220.570312 31.886719 C 220.914062 32.714844 221.214844 33.554688 221.472656 34.414062 C 221.734375 35.269531 221.953125 36.140625 222.125 37.019531 C 222.300781 37.898438 222.433594 38.78125 222.519531 39.671875 C 222.609375 40.566406 222.652344 41.460938 222.652344 42.355469 Z M 222.652344 42.355469 " fill-opacity="1" fill-rule="nonzero"/></g><path fill="#ffffff" d="M 195.292969 59.164062 C 192.3125 59.167969 189.527344 58.429688 186.9375 56.945312 L 179.101562 59.046875 L 181.140625 51.429688 C 180.808594 50.910156 180.503906 50.375 180.230469 49.820312 C 179.957031 49.265625 179.714844 48.699219 179.5 48.121094 C 179.289062 47.542969 179.109375 46.953125 178.964844 46.351562 C 178.816406 45.753906 178.703125 45.144531 178.625 44.535156 C 178.542969 43.921875 178.496094 43.308594 178.484375 42.691406 C 178.472656 42.074219 178.496094 41.457031 178.550781 40.839844 C 178.605469 40.226562 178.695312 39.617188 178.816406 39.011719 C 178.941406 38.40625 179.09375 37.808594 179.285156 37.222656 C 179.472656 36.632812 179.691406 36.058594 179.945312 35.496094 C 180.195312 34.929688 180.476562 34.382812 180.789062 33.851562 C 181.101562 33.316406 181.441406 32.804688 181.8125 32.308594 C 182.179688 31.8125 182.574219 31.339844 182.996094 30.890625 C 183.417969 30.4375 183.863281 30.011719 184.332031 29.609375 C 184.796875 29.207031 185.289062 28.832031 185.796875 28.480469 C 186.304688 28.132812 186.832031 27.8125 187.378906 27.523438 C 187.921875 27.230469 188.480469 26.972656 189.054688 26.742188 C 189.628906 26.511719 190.210938 26.316406 190.808594 26.152344 C 191.402344 25.988281 192.003906 25.855469 192.613281 25.757812 C 193.222656 25.660156 193.835938 25.59375 194.453125 25.5625 C 195.070312 25.53125 195.6875 25.535156 196.300781 25.574219 C 196.917969 25.609375 197.53125 25.679688 198.140625 25.785156 C 198.746094 25.890625 199.347656 26.027344 199.941406 26.199219 C 200.535156 26.367188 201.117188 26.570312 201.6875 26.804688 C 202.257812 27.039062 202.816406 27.304688 203.355469 27.601562 C 203.898438 27.898438 204.421875 28.222656 204.929688 28.578125 C 205.433594 28.929688 205.917969 29.3125 206.382812 29.71875 C 206.847656 30.125 207.289062 30.558594 207.703125 31.011719 C 208.121094 31.46875 208.511719 31.945312 208.875 32.445312 C 209.238281 32.945312 209.574219 33.460938 209.878906 33.996094 C 210.1875 34.53125 210.464844 35.082031 210.710938 35.648438 C 210.957031 36.214844 211.171875 36.792969 211.355469 37.382812 C 211.535156 37.972656 211.6875 38.570312 211.800781 39.175781 C 211.917969 39.785156 212.003906 40.394531 212.050781 41.007812 C 212.101562 41.625 212.117188 42.242188 212.097656 42.859375 C 212.078125 43.476562 212.027344 44.089844 211.941406 44.699219 C 211.855469 45.3125 211.734375 45.917969 211.582031 46.515625 C 211.429688 47.113281 211.246094 47.699219 211.027344 48.277344 C 210.808594 48.855469 210.558594 49.421875 210.28125 49.972656 C 210 50.519531 209.691406 51.054688 209.355469 51.570312 C 209.015625 52.085938 208.648438 52.582031 208.257812 53.058594 C 207.863281 53.535156 207.445312 53.988281 207.003906 54.417969 C 206.558594 54.847656 206.09375 55.253906 205.605469 55.632812 C 205.117188 56.011719 204.613281 56.359375 204.085938 56.683594 C 203.558594 57.007812 203.015625 57.300781 202.457031 57.5625 C 201.898438 57.824219 201.328125 58.058594 200.746094 58.257812 C 200.160156 58.457031 199.566406 58.625 198.964844 58.761719 C 198.363281 58.894531 197.753906 58.996094 197.140625 59.0625 C 196.527344 59.132812 195.910156 59.164062 195.292969 59.164062 Z M 187.507812 53.109375 L 188.167969 53.53125 C 188.628906 53.824219 189.101562 54.085938 189.59375 54.320312 C 190.082031 54.554688 190.585938 54.757812 191.101562 54.929688 C 191.621094 55.101562 192.144531 55.242188 192.675781 55.351562 C 193.210938 55.457031 193.75 55.53125 194.289062 55.574219 C 194.832031 55.613281 195.375 55.621094 195.917969 55.597656 C 196.464844 55.570312 197.003906 55.511719 197.539062 55.421875 C 198.074219 55.328125 198.605469 55.203125 199.125 55.046875 C 199.644531 54.890625 200.15625 54.703125 200.652344 54.484375 C 201.148438 54.261719 201.632812 54.011719 202.097656 53.734375 C 202.566406 53.457031 203.015625 53.148438 203.441406 52.816406 C 203.871094 52.480469 204.28125 52.121094 204.664062 51.738281 C 205.050781 51.351562 205.410156 50.945312 205.746094 50.515625 C 206.078125 50.089844 206.386719 49.640625 206.667969 49.175781 C 206.945312 48.707031 207.195312 48.226562 207.417969 47.730469 C 207.636719 47.230469 207.828125 46.722656 207.984375 46.203125 C 208.144531 45.683594 208.269531 45.152344 208.359375 44.617188 C 208.453125 44.082031 208.515625 43.542969 208.539062 43 C 208.566406 42.457031 208.558594 41.914062 208.519531 41.371094 C 208.480469 40.828125 208.40625 40.289062 208.300781 39.757812 C 208.191406 39.222656 208.054688 38.699219 207.882812 38.179688 C 207.710938 37.664062 207.507812 37.160156 207.277344 36.667969 C 207.042969 36.179688 206.78125 35.703125 206.488281 35.242188 C 206.195312 34.785156 205.878906 34.34375 205.53125 33.925781 C 205.1875 33.503906 204.816406 33.109375 204.421875 32.734375 C 204.027344 32.359375 203.609375 32.011719 203.171875 31.6875 C 202.734375 31.363281 202.277344 31.070312 201.804688 30.804688 C 201.332031 30.535156 200.84375 30.300781 200.339844 30.09375 C 199.835938 29.886719 199.320312 29.710938 198.796875 29.566406 C 198.273438 29.421875 197.742188 29.3125 197.203125 29.234375 C 196.664062 29.15625 196.125 29.109375 195.578125 29.097656 C 195.035156 29.089844 194.492188 29.109375 193.953125 29.164062 C 193.410156 29.21875 192.875 29.308594 192.34375 29.429688 C 191.8125 29.550781 191.292969 29.703125 190.78125 29.890625 C 190.269531 30.074219 189.773438 30.289062 189.289062 30.539062 C 188.800781 30.785156 188.335938 31.058594 187.882812 31.363281 C 187.433594 31.667969 187.003906 32 186.59375 32.355469 C 186.183594 32.714844 185.792969 33.09375 185.429688 33.5 C 185.066406 33.902344 184.730469 34.328125 184.421875 34.777344 C 184.109375 35.222656 183.828125 35.6875 183.574219 36.167969 C 183.320312 36.648438 183.09375 37.144531 182.902344 37.652344 C 182.710938 38.160156 182.546875 38.679688 182.417969 39.207031 C 182.289062 39.734375 182.195312 40.269531 182.128906 40.808594 C 182.066406 41.351562 182.039062 41.894531 182.039062 42.4375 C 182.042969 42.980469 182.082031 43.523438 182.152344 44.0625 C 182.222656 44.601562 182.324219 45.132812 182.460938 45.660156 C 182.59375 46.1875 182.761719 46.703125 182.960938 47.210938 C 183.160156 47.714844 183.390625 48.207031 183.652344 48.6875 C 183.910156 49.164062 184.199219 49.625 184.515625 50.066406 L 185.003906 50.75 L 184.132812 54.015625 Z M 187.507812 53.109375 " fill-opacity="1" fill-rule="nonzero"/><path fill="#20ab4b" d="M 195.292969 27.324219 C 193.914062 27.324219 192.558594 27.511719 191.226562 27.882812 C 189.898438 28.257812 188.640625 28.804688 187.464844 29.523438 C 186.285156 30.246094 185.222656 31.109375 184.285156 32.121094 C 183.34375 33.132812 182.558594 34.253906 181.925781 35.484375 C 181.292969 36.710938 180.839844 38.003906 180.566406 39.355469 C 180.289062 40.710938 180.203125 42.078125 180.300781 43.453125 C 180.402344 44.832031 180.6875 46.171875 181.160156 47.46875 C 181.628906 48.769531 182.265625 49.980469 183.070312 51.105469 L 181.617188 56.53125 L 187.210938 55.03125 C 187.703125 55.34375 188.207031 55.625 188.730469 55.878906 C 189.253906 56.132812 189.789062 56.355469 190.339844 56.546875 C 190.890625 56.742188 191.445312 56.898438 192.015625 57.027344 C 192.582031 57.152344 193.15625 57.246094 193.734375 57.308594 C 194.3125 57.367188 194.890625 57.394531 195.472656 57.386719 C 196.054688 57.378906 196.632812 57.339844 197.210938 57.265625 C 197.785156 57.191406 198.359375 57.085938 198.921875 56.945312 C 199.484375 56.804688 200.039062 56.632812 200.585938 56.425781 C 201.128906 56.222656 201.660156 55.988281 202.175781 55.71875 C 202.695312 55.453125 203.195312 55.160156 203.675781 54.835938 C 204.160156 54.511719 204.621094 54.160156 205.0625 53.78125 C 205.503906 53.402344 205.921875 53 206.320312 52.574219 C 206.714844 52.148438 207.082031 51.699219 207.425781 51.230469 C 207.769531 50.761719 208.085938 50.273438 208.371094 49.769531 C 208.660156 49.261719 208.914062 48.742188 209.140625 48.207031 C 209.367188 47.671875 209.5625 47.125 209.726562 46.566406 C 209.886719 46.007812 210.019531 45.441406 210.117188 44.867188 C 210.210938 44.296875 210.277344 43.71875 210.304688 43.136719 C 210.335938 42.558594 210.332031 41.976562 210.296875 41.394531 C 210.257812 40.816406 210.1875 40.238281 210.085938 39.667969 C 209.980469 39.09375 209.84375 38.53125 209.675781 37.976562 C 209.503906 37.417969 209.304688 36.875 209.070312 36.339844 C 208.839844 35.808594 208.574219 35.289062 208.28125 34.789062 C 207.992188 34.285156 207.667969 33.800781 207.320312 33.335938 C 206.972656 32.871094 206.597656 32.429688 206.195312 32.007812 C 205.796875 31.585938 205.371094 31.1875 204.925781 30.816406 C 204.480469 30.441406 204.015625 30.097656 203.527344 29.777344 C 203.039062 29.460938 202.539062 29.171875 202.015625 28.910156 C 201.496094 28.648438 200.964844 28.421875 200.417969 28.222656 C 199.871094 28.023438 199.3125 27.859375 198.75 27.726562 C 198.183594 27.59375 197.609375 27.492188 197.03125 27.425781 C 196.457031 27.355469 195.875 27.324219 195.292969 27.324219 Z M 195.292969 27.324219 " fill-opacity="1" fill-rule="nonzero"/><path fill="#ffffff" d="M 203.816406 49.054688 C 204.089844 48.378906 204.226562 47.03125 203.523438 46.625 C 203 46.324219 202.375 46.132812 201.820312 45.898438 C 201.1875 45.628906 200.550781 45.300781 199.902344 45.078125 C 198.980469 44.765625 198.398438 45.582031 197.804688 46.144531 C 197.675781 46.265625 197.402344 46.640625 197.203125 46.683594 C 196.957031 46.738281 196.574219 46.410156 196.367188 46.285156 C 195.980469 46.054688 195.605469 45.808594 195.242188 45.542969 C 194.105469 44.710938 193.113281 43.730469 192.265625 42.605469 C 191.859375 42.0625 191.394531 41.449219 191.121094 40.824219 C 190.9375 40.402344 191.1875 40.273438 191.472656 39.976562 C 192.046875 39.367188 192.925781 38.742188 192.621094 37.808594 C 192.421875 37.191406 192.101562 36.585938 191.84375 35.988281 C 191.59375 35.394531 191.378906 34.753906 191.074219 34.183594 C 190.675781 33.441406 189.59375 33.570312 188.921875 33.792969 C 188.609375 33.882812 188.328125 34.03125 188.074219 34.230469 C 187.675781 34.59375 187.347656 35.011719 187.097656 35.488281 C 186.203125 37.035156 186.488281 39.386719 187.34375 40.867188 C 188.546875 42.953125 189.628906 45.007812 191.390625 46.707031 C 193.109375 48.367188 195.273438 49.621094 197.410156 50.679688 C 198.421875 51.179688 199.578125 51.09375 200.675781 51.066406 C 201.800781 51.039062 203.367188 50.15625 203.816406 49.054688 Z M 203.816406 49.054688 " fill-opacity="1" fill-rule="nonzero"/></svg>