<svg xmlns="http://www.w3.org/2000/svg" xmlns:xlink="http://www.w3.org/1999/xlink" width="302" zoomAndPan="magnify" viewBox="0 0 226.5 84.749997" height="113" preserveAspectRatio="xMidYMid meet" version="1.0"><defs><clipPath id="ff6ae8dc41"><path d="M 85.898438 15 L 140.609375 15 L 140.609375 69.710938 L 85.898438 69.710938 Z M 85.898438 15 " clip-rule="nonzero"/></clipPath></defs><g clip-path="url(#ff6ae8dc41)"><path fill="#20ab4b" d="M 140.609375 42.355469 C 140.609375 43.25 140.566406 44.144531 140.476562 45.035156 C 140.390625 45.929688 140.257812 46.8125 140.085938 47.691406 C 139.910156 48.570312 139.691406 49.4375 139.433594 50.296875 C 139.171875 51.152344 138.871094 51.996094 138.527344 52.824219 C 138.183594 53.652344 137.800781 54.460938 137.378906 55.25 C 136.957031 56.042969 136.496094 56.808594 136 57.554688 C 135.5 58.300781 134.96875 59.019531 134.398438 59.710938 C 133.832031 60.402344 133.230469 61.066406 132.597656 61.699219 C 131.964844 62.332031 131.300781 62.933594 130.609375 63.503906 C 129.914062 64.070312 129.195312 64.605469 128.453125 65.101562 C 127.707031 65.601562 126.9375 66.058594 126.148438 66.480469 C 125.359375 66.90625 124.550781 67.289062 123.722656 67.628906 C 122.894531 67.972656 122.050781 68.273438 121.195312 68.535156 C 120.335938 68.792969 119.46875 69.011719 118.589844 69.1875 C 117.710938 69.363281 116.824219 69.492188 115.933594 69.582031 C 115.042969 69.667969 114.148438 69.710938 113.253906 69.710938 C 112.355469 69.710938 111.464844 69.667969 110.570312 69.582031 C 109.679688 69.492188 108.792969 69.363281 107.914062 69.1875 C 107.035156 69.011719 106.167969 68.792969 105.3125 68.535156 C 104.453125 68.273438 103.609375 67.972656 102.785156 67.628906 C 101.957031 67.289062 101.148438 66.90625 100.355469 66.480469 C 99.566406 66.058594 98.796875 65.601562 98.054688 65.101562 C 97.308594 64.605469 96.589844 64.070312 95.898438 63.503906 C 95.203125 62.933594 94.542969 62.332031 93.90625 61.699219 C 93.273438 61.066406 92.671875 60.402344 92.105469 59.710938 C 91.535156 59.019531 91.003906 58.300781 90.507812 57.554688 C 90.007812 56.808594 89.546875 56.042969 89.125 55.25 C 88.703125 54.460938 88.320312 53.652344 87.976562 52.824219 C 87.636719 51.996094 87.332031 51.152344 87.074219 50.296875 C 86.8125 49.4375 86.597656 48.570312 86.421875 47.691406 C 86.246094 46.8125 86.113281 45.929688 86.027344 45.035156 C 85.9375 44.144531 85.894531 43.25 85.894531 42.355469 C 85.894531 41.460938 85.9375 40.566406 86.027344 39.671875 C 86.113281 38.78125 86.246094 37.898438 86.421875 37.019531 C 86.597656 36.140625 86.8125 35.269531 87.074219 34.414062 C 87.332031 33.554688 87.636719 32.714844 87.976562 31.886719 C 88.320312 31.058594 88.703125 30.25 89.125 29.460938 C 89.546875 28.667969 90.007812 27.902344 90.507812 27.15625 C 91.003906 26.410156 91.535156 25.691406 92.105469 25 C 92.671875 24.308594 93.273438 23.644531 93.90625 23.011719 C 94.542969 22.378906 95.203125 21.777344 95.898438 21.207031 C 96.589844 20.640625 97.308594 20.105469 98.054688 19.609375 C 98.796875 19.109375 99.566406 18.652344 100.355469 18.226562 C 101.148438 17.804688 101.957031 17.421875 102.785156 17.082031 C 103.609375 16.738281 104.453125 16.4375 105.3125 16.175781 C 106.167969 15.914062 107.035156 15.699219 107.914062 15.523438 C 108.792969 15.347656 109.679688 15.21875 110.570312 15.128906 C 111.464844 15.042969 112.355469 14.996094 113.253906 14.996094 C 114.148438 14.996094 115.042969 15.042969 115.933594 15.128906 C 116.824219 15.21875 117.710938 15.347656 118.589844 15.523438 C 119.46875 15.699219 120.335938 15.914062 121.195312 16.175781 C 122.050781 16.4375 122.894531 16.738281 123.722656 17.082031 C 124.550781 17.421875 125.359375 17.804688 126.148438 18.226562 C 126.9375 18.652344 127.707031 19.109375 128.453125 19.609375 C 129.195312 20.105469 129.914062 20.640625 130.609375 21.207031 C 131.300781 21.777344 131.964844 22.378906 132.597656 23.011719 C 133.230469 23.644531 133.832031 24.308594 134.398438 25 C 134.96875 25.691406 135.5 26.410156 136 27.15625 C 136.496094 27.902344 136.957031 28.667969 137.378906 29.460938 C 137.800781 30.25 138.183594 31.058594 138.527344 31.886719 C 138.871094 32.714844 139.171875 33.554688 139.433594 34.414062 C 139.691406 35.269531 139.910156 36.140625 140.085938 37.019531 C 140.257812 37.898438 140.390625 38.78125 140.476562 39.671875 C 140.566406 40.566406 140.609375 41.460938 140.609375 42.355469 Z M 140.609375 42.355469 " fill-opacity="1" fill-rule="nonzero"/></g><path fill="#ffffff" d="M 113.253906 59.164062 C 110.269531 59.167969 107.484375 58.429688 104.898438 56.945312 L 97.058594 59.046875 L 99.101562 51.429688 C 98.765625 50.910156 98.464844 50.375 98.1875 49.820312 C 97.914062 49.265625 97.671875 48.699219 97.460938 48.121094 C 97.25 47.542969 97.070312 46.953125 96.921875 46.351562 C 96.773438 45.753906 96.660156 45.144531 96.582031 44.535156 C 96.5 43.921875 96.457031 43.308594 96.441406 42.691406 C 96.429688 42.074219 96.453125 41.457031 96.507812 40.839844 C 96.5625 40.226562 96.652344 39.617188 96.777344 39.011719 C 96.898438 38.40625 97.054688 37.808594 97.242188 37.222656 C 97.429688 36.632812 97.652344 36.058594 97.902344 35.496094 C 98.15625 34.929688 98.4375 34.382812 98.75 33.851562 C 99.0625 33.316406 99.402344 32.804688 99.769531 32.308594 C 100.140625 31.8125 100.535156 31.339844 100.957031 30.890625 C 101.375 30.4375 101.820312 30.011719 102.289062 29.609375 C 102.757812 29.207031 103.246094 28.832031 103.753906 28.480469 C 104.265625 28.132812 104.792969 27.8125 105.335938 27.523438 C 105.878906 27.230469 106.441406 26.972656 107.011719 26.742188 C 107.585938 26.511719 108.171875 26.316406 108.765625 26.152344 C 109.359375 25.988281 109.960938 25.855469 110.570312 25.757812 C 111.179688 25.660156 111.792969 25.59375 112.410156 25.5625 C 113.027344 25.53125 113.644531 25.535156 114.261719 25.574219 C 114.875 25.609375 115.488281 25.679688 116.097656 25.785156 C 116.707031 25.890625 117.308594 26.027344 117.898438 26.199219 C 118.492188 26.367188 119.074219 26.570312 119.644531 26.804688 C 120.21875 27.039062 120.773438 27.304688 121.316406 27.601562 C 121.855469 27.898438 122.382812 28.222656 122.886719 28.578125 C 123.394531 28.929688 123.878906 29.3125 124.339844 29.71875 C 124.804688 30.125 125.246094 30.558594 125.664062 31.011719 C 126.078125 31.46875 126.46875 31.945312 126.832031 32.445312 C 127.195312 32.945312 127.53125 33.460938 127.839844 33.996094 C 128.144531 34.53125 128.421875 35.082031 128.667969 35.648438 C 128.914062 36.214844 129.128906 36.792969 129.3125 37.382812 C 129.496094 37.972656 129.644531 38.570312 129.761719 39.175781 C 129.878906 39.785156 129.960938 40.394531 130.011719 41.007812 C 130.058594 41.625 130.074219 42.242188 130.054688 42.859375 C 130.039062 43.476562 129.984375 44.089844 129.898438 44.699219 C 129.8125 45.3125 129.695312 45.917969 129.539062 46.515625 C 129.386719 47.113281 129.203125 47.699219 128.984375 48.277344 C 128.765625 48.855469 128.519531 49.421875 128.238281 49.972656 C 127.960938 50.519531 127.648438 51.054688 127.3125 51.570312 C 126.972656 52.085938 126.609375 52.582031 126.214844 53.058594 C 125.820312 53.535156 125.402344 53.988281 124.960938 54.417969 C 124.515625 54.847656 124.050781 55.253906 123.5625 55.632812 C 123.078125 56.011719 122.570312 56.359375 122.042969 56.683594 C 121.515625 57.007812 120.976562 57.300781 120.417969 57.5625 C 119.859375 57.824219 119.285156 58.058594 118.703125 58.257812 C 118.117188 58.457031 117.527344 58.625 116.921875 58.761719 C 116.320312 58.894531 115.710938 58.996094 115.097656 59.0625 C 114.484375 59.132812 113.871094 59.164062 113.253906 59.164062 Z M 105.464844 53.109375 L 106.125 53.53125 C 106.585938 53.824219 107.058594 54.085938 107.550781 54.320312 C 108.042969 54.554688 108.546875 54.757812 109.0625 54.929688 C 109.578125 55.101562 110.101562 55.242188 110.636719 55.351562 C 111.167969 55.457031 111.707031 55.53125 112.25 55.574219 C 112.792969 55.613281 113.335938 55.621094 113.878906 55.597656 C 114.421875 55.570312 114.960938 55.511719 115.496094 55.421875 C 116.035156 55.328125 116.5625 55.203125 117.082031 55.046875 C 117.605469 54.890625 118.113281 54.703125 118.609375 54.484375 C 119.109375 54.261719 119.589844 54.011719 120.058594 53.734375 C 120.523438 53.457031 120.972656 53.148438 121.402344 52.816406 C 121.832031 52.480469 122.238281 52.121094 122.621094 51.738281 C 123.007812 51.351562 123.367188 50.945312 123.703125 50.515625 C 124.039062 50.089844 124.34375 49.640625 124.625 49.175781 C 124.90625 48.707031 125.15625 48.226562 125.375 47.730469 C 125.597656 47.230469 125.785156 46.722656 125.945312 46.203125 C 126.101562 45.683594 126.226562 45.152344 126.320312 44.617188 C 126.414062 44.082031 126.472656 43.542969 126.5 43 C 126.523438 42.457031 126.519531 41.914062 126.476562 41.371094 C 126.4375 40.828125 126.363281 40.289062 126.257812 39.757812 C 126.152344 39.222656 126.011719 38.699219 125.839844 38.179688 C 125.667969 37.664062 125.46875 37.160156 125.234375 36.667969 C 125 36.179688 124.738281 35.703125 124.445312 35.242188 C 124.15625 34.785156 123.835938 34.34375 123.488281 33.925781 C 123.144531 33.503906 122.773438 33.109375 122.378906 32.734375 C 121.984375 32.359375 121.566406 32.011719 121.128906 31.6875 C 120.691406 31.363281 120.238281 31.070312 119.761719 30.804688 C 119.289062 30.535156 118.800781 30.300781 118.296875 30.09375 C 117.792969 29.886719 117.28125 29.710938 116.753906 29.566406 C 116.230469 29.421875 115.699219 29.3125 115.160156 29.234375 C 114.621094 29.15625 114.082031 29.109375 113.539062 29.097656 C 112.992188 29.089844 112.453125 29.109375 111.910156 29.164062 C 111.367188 29.21875 110.832031 29.308594 110.304688 29.429688 C 109.773438 29.550781 109.25 29.703125 108.742188 29.890625 C 108.230469 30.074219 107.730469 30.289062 107.246094 30.539062 C 106.761719 30.785156 106.292969 31.058594 105.84375 31.363281 C 105.390625 31.667969 104.960938 32 104.550781 32.355469 C 104.140625 32.714844 103.753906 33.09375 103.390625 33.5 C 103.027344 33.902344 102.6875 34.328125 102.378906 34.777344 C 102.066406 35.222656 101.785156 35.6875 101.53125 36.167969 C 101.277344 36.648438 101.054688 37.144531 100.859375 37.652344 C 100.667969 38.160156 100.507812 38.679688 100.378906 39.207031 C 100.25 39.734375 100.152344 40.269531 100.089844 40.808594 C 100.027344 41.351562 99.996094 41.894531 100 42.4375 C 100.003906 42.980469 100.039062 43.523438 100.109375 44.0625 C 100.179688 44.601562 100.28125 45.132812 100.417969 45.660156 C 100.554688 46.1875 100.722656 46.703125 100.921875 47.210938 C 101.121094 47.714844 101.347656 48.207031 101.609375 48.6875 C 101.867188 49.164062 102.15625 49.625 102.472656 50.066406 L 102.964844 50.75 L 102.089844 54.015625 Z M 105.464844 53.109375 " fill-opacity="1" fill-rule="nonzero"/><path fill="#20ab4b" d="M 113.253906 27.324219 C 111.871094 27.324219 110.515625 27.511719 109.183594 27.882812 C 107.855469 28.257812 106.601562 28.804688 105.421875 29.523438 C 104.242188 30.246094 103.183594 31.109375 102.242188 32.121094 C 101.300781 33.132812 100.515625 34.253906 99.882812 35.484375 C 99.253906 36.710938 98.796875 38.003906 98.523438 39.355469 C 98.246094 40.710938 98.160156 42.078125 98.261719 43.453125 C 98.363281 44.832031 98.648438 46.171875 99.117188 47.46875 C 99.585938 48.769531 100.222656 49.980469 101.027344 51.105469 L 99.574219 56.53125 L 105.167969 55.03125 C 105.660156 55.34375 106.167969 55.625 106.691406 55.878906 C 107.214844 56.132812 107.75 56.355469 108.296875 56.546875 C 108.847656 56.742188 109.40625 56.898438 109.972656 57.027344 C 110.539062 57.152344 111.113281 57.246094 111.691406 57.308594 C 112.269531 57.367188 112.851562 57.394531 113.429688 57.386719 C 114.011719 57.378906 114.59375 57.339844 115.167969 57.265625 C 115.746094 57.191406 116.316406 57.085938 116.878906 56.945312 C 117.445312 56.804688 118 56.632812 118.542969 56.425781 C 119.085938 56.222656 119.617188 55.988281 120.136719 55.71875 C 120.652344 55.453125 121.152344 55.160156 121.632812 54.835938 C 122.117188 54.511719 122.578125 54.160156 123.023438 53.78125 C 123.464844 53.402344 123.882812 53 124.277344 52.574219 C 124.671875 52.148438 125.042969 51.699219 125.386719 51.230469 C 125.730469 50.761719 126.042969 50.273438 126.332031 49.769531 C 126.617188 49.261719 126.875 48.742188 127.101562 48.207031 C 127.328125 47.671875 127.519531 47.125 127.683594 46.566406 C 127.847656 46.007812 127.976562 45.441406 128.074219 44.867188 C 128.171875 44.296875 128.234375 43.71875 128.265625 43.136719 C 128.296875 42.558594 128.292969 41.976562 128.253906 41.394531 C 128.21875 40.816406 128.148438 40.238281 128.042969 39.667969 C 127.9375 39.09375 127.800781 38.53125 127.632812 37.976562 C 127.464844 37.417969 127.261719 36.875 127.03125 36.339844 C 126.796875 35.808594 126.535156 35.289062 126.242188 34.789062 C 125.949219 34.285156 125.628906 33.800781 125.277344 33.335938 C 124.929688 32.871094 124.554688 32.429688 124.15625 32.007812 C 123.753906 31.585938 123.332031 31.1875 122.886719 30.816406 C 122.4375 30.441406 121.972656 30.097656 121.484375 29.777344 C 121 29.460938 120.496094 29.171875 119.976562 28.910156 C 119.457031 28.648438 118.921875 28.421875 118.375 28.222656 C 117.828125 28.023438 117.273438 27.859375 116.707031 27.726562 C 116.140625 27.59375 115.570312 27.492188 114.992188 27.425781 C 114.414062 27.355469 113.835938 27.324219 113.253906 27.324219 Z M 113.253906 27.324219 " fill-opacity="1" fill-rule="nonzero"/><path fill="#ffffff" d="M 121.773438 49.054688 C 122.046875 48.378906 122.1875 47.03125 121.484375 46.625 C 120.960938 46.324219 120.332031 46.132812 119.777344 45.898438 C 119.144531 45.628906 118.511719 45.300781 117.859375 45.078125 C 116.941406 44.765625 116.359375 45.582031 115.761719 46.144531 C 115.632812 46.265625 115.363281 46.640625 115.164062 46.683594 C 114.914062 46.738281 114.53125 46.410156 114.324219 46.285156 C 113.9375 46.054688 113.566406 45.808594 113.203125 45.542969 C 112.066406 44.710938 111.074219 43.730469 110.226562 42.605469 C 109.816406 42.0625 109.351562 41.449219 109.078125 40.824219 C 108.894531 40.402344 109.148438 40.273438 109.429688 39.976562 C 110.003906 39.367188 110.886719 38.742188 110.582031 37.808594 C 110.378906 37.191406 110.058594 36.585938 109.804688 35.988281 C 109.550781 35.394531 109.335938 34.753906 109.03125 34.183594 C 108.636719 33.441406 107.550781 33.570312 106.882812 33.792969 C 106.570312 33.882812 106.289062 34.03125 106.035156 34.230469 C 105.632812 34.59375 105.304688 35.011719 105.054688 35.488281 C 104.164062 37.035156 104.449219 39.386719 105.300781 40.867188 C 106.503906 42.953125 107.585938 45.007812 109.347656 46.707031 C 111.066406 48.367188 113.230469 49.621094 115.367188 50.679688 C 116.378906 51.179688 117.535156 51.09375 118.632812 51.066406 C 119.757812 51.039062 121.324219 50.15625 121.773438 49.054688 Z M 121.773438 49.054688 " fill-opacity="1" fill-rule="nonzero"/></svg>